# xmcd CD database file
#
# Track frame offsets:
#	183
#	22458
#	63208
#	87395
#	128703
#	150495
#	186208
#	214295
#
# Disc length: 3448 seconds
#
# Revision: 4
# Processed by: cddbd v1.5.2PL0 Copyright (c) Steve Scherf et al.
# Submitted via: CDex 1.51
#
DISCID=6e0d7608
DTITLE=Chick Corea - Compact Jazz
DYEAR=1987
DGENRE=Jazz
TTITLE0=Captain Marvel
TTITLE1=Captain Senor Mouse
TTITLE2=Armando's Rhumba
TTITLE3=500 Miles High
TTITLE4=Love Castle
TTITLE5=Vulcan Worlds
TTITLE6=No Mystery
TTITLE7=Spain
EXTD=YEAR: 1987
EXTT0=
EXTT1=
EXTT2=
EXTT3=
EXTT4=
EXTT5=
EXTT6=
EXTT7=
PLAYORDER=
